# xmcd
#
# Track frame offsets:
#	150
#	12166
#	23994
#	38812
#	47844
#	59607
#	70144
#	82556
#	94541
#	107772
#	117210
#	130206
#	139436
#	151233
#	161615
#	174135
#	185364
#	197676
#	208605
#	218249
#	230326
#	241739
#	252881
#	263081
#	274696
#	284696
#	294990
#	304884
#	315625
#	327620
#	339732
#	351507
#
# Disc length: 4838 seconds
#
# Revision: 0
# Processed by: cddbd v1.5.1PL2 Copyright (c) Steve Scherf et al.
# Submitted via: EasyCDDAExtractor 4.6.9.1
#
DISCID=d612e420
DTITLE=Wanda Jackson - Tears Will Be The Chaser For Your Wine - CD 3
DYEAR=1997
DGENRE=Country
TTITLE0=Try Me One More Time
TTITLE1=Let's Say Goodbye Like We Said Hello
TTITLE2=The Soldiers Last Letter
TTITLE3=Jambalaya
TTITLE4=Jealous Heart
TTITLE5=There's A New Moon Over My Shoulder
TTITLE6=You Win Again
TTITLE7=Wabash Cannonball
TTITLE8=The Great Speckled Bird
TTITLE9=Fireball Mail
TTITLE10=Blue Yodel No 6
TTITLE11=Tuck Away My Lonesome Blues
TTITLE12=My Days Are Darker Than Your Nights
TTITLE13=I'd Like To help You Out
TTITLE14=Two Wrongs Don't Make A Right
TTITLE15=Memory Maker
TTITLE16=Who Do You Go To
TTITLE17=My Baby Walked Right Out on Me
TTITLE18=The Half That's Mine
TTITLE19=A Girl Don't Have To Drink To Have Fun
TTITLE20=I'll Do It All Over Again
TTITLE21=No Place To Go But Home
TTITLE22=You Created Me
TTITLE23=I Wish I Was Your Friend
TTITLE24=Your Tender Love
TTITLE25=By The Time I get To Phoenix
TTITLE26=Wishing Well
TTITLE27=My Baby Walked Right Out On Me
TTITLE28=The Dirt Bhind My Years
TTITLE29=Little Boy Soldier
TTITLE30=Poor Ole Me
TTITLE31=As The Day Wears On
EXTD=
EXTT0=
EXTT1=
EXTT2=
EXTT3=
EXTT4=
EXTT5=
EXTT6=
EXTT7=
EXTT8=
EXTT9=
EXTT10=
EXTT11=
EXTT12=
EXTT13=
EXTT14=
EXTT15=
EXTT16=
EXTT17=
EXTT18=
EXTT19=
EXTT20=
EXTT21=
EXTT22=
EXTT23=
EXTT24=
EXTT25=
EXTT26=
EXTT27=
EXTT28=
EXTT29=
EXTT30=
EXTT31=
PLAYORDER=
